<svg width="34" height="34" viewBox="0 0 34 34" fill="none" xmlns="http://www.w3.org/2000/svg">
<path d="M0 17C0 26.3888 7.61116 34 17 34C26.3888 34 34 26.3888 34 17C34 7.61116 26.3888 0 17 0C7.61116 0 0 7.61116 0 17Z" fill="#E4E6E7"/>
<path d="M17.0365 21.6218C15.5106 21.6218 14.0443 21.807 12.6783 22.1481C5.66559 23.8992 9.80865 30.8315 17.0367 30.8315C24.2655 30.8315 28.4078 23.8988 21.3942 22.148C20.0283 21.807 18.5621 21.6218 17.0365 21.6218Z" fill="#AEB4B7"/>
<path d="M23.7339 14.057C23.7339 18.0205 20.7573 21.2336 17.0856 21.2336C13.414 21.2336 10.4374 18.0205 10.4374 14.057C10.4374 10.0935 13.414 6.88046 17.0856 6.88046C20.7578 6.88046 23.7339 10.094 23.7339 14.057Z" fill="#AEB4B7"/>
</svg>
